<svg width="274" height="48" viewBox="0 0 274 48" fill="none" xmlns="http://www.w3.org/2000/svg">
<path d="M75.2259 38V12.62H80.8419V22.808H92.4699V12.62H98.1219V38H92.4699V27.452H80.8419V38H75.2259ZM112.101 38.396C108.933 38.396 106.461 37.544 104.685 35.84C102.909 34.136 102.021 31.82 102.021 28.892C102.021 26.996 102.393 25.34 103.137 23.924C103.905 22.508 104.961 21.404 106.305 20.612C107.673 19.796 109.269 19.388 111.093 19.388C112.893 19.388 114.393 19.772 115.593 20.54C116.817 21.308 117.729 22.388 118.329 23.78C118.953 25.148 119.265 26.744 119.265 28.568V29.828H106.485V27.128H115.305L114.693 27.632C114.693 26.12 114.381 24.98 113.757 24.212C113.157 23.42 112.281 23.024 111.129 23.024C109.857 23.024 108.873 23.492 108.177 24.428C107.505 25.364 107.169 26.708 107.169 28.46V29.036C107.169 30.812 107.601 32.132 108.465 32.996C109.353 33.86 110.625 34.292 112.281 34.292C113.265 34.292 114.189 34.172 115.053 33.932C115.941 33.668 116.781 33.26 117.573 32.708L119.085 36.308C118.173 36.98 117.117 37.496 115.917 37.856C114.741 38.216 113.469 38.396 112.101 38.396ZM122.678 38V24.572C122.678 23.78 122.654 22.976 122.606 22.16C122.582 21.344 122.522 20.54 122.426 19.748H127.646L128.258 25.076H127.43C127.67 23.78 128.054 22.712 128.582 21.872C129.134 21.032 129.806 20.408 130.598 20C131.414 19.592 132.338 19.388 133.37 19.388C133.826 19.388 134.186 19.412 134.45 19.46C134.714 19.484 134.978 19.544 135.242 19.64L135.206 24.428C134.702 24.212 134.27 24.08 133.91 24.032C133.574 23.96 133.142 23.924 132.614 23.924C131.606 23.924 130.766 24.116 130.094 24.5C129.446 24.884 128.954 25.448 128.618 26.192C128.306 26.936 128.15 27.836 128.15 28.892V38H122.678ZM145.838 38.396C143.894 38.396 142.202 38.012 140.762 37.244C139.346 36.452 138.242 35.348 137.45 33.932C136.682 32.516 136.298 30.824 136.298 28.856C136.298 26.912 136.682 25.232 137.45 23.816C138.242 22.4 139.346 21.308 140.762 20.54C142.202 19.772 143.894 19.388 145.838 19.388C147.782 19.388 149.474 19.772 150.914 20.54C152.354 21.308 153.458 22.4 154.226 23.816C155.018 25.232 155.414 26.912 155.414 28.856C155.414 30.824 155.018 32.516 154.226 33.932C153.458 35.348 152.354 36.452 150.914 37.244C149.474 38.012 147.782 38.396 145.838 38.396ZM145.838 34.292C147.086 34.292 148.07 33.848 148.79 32.96C149.534 32.072 149.906 30.704 149.906 28.856C149.906 27.008 149.534 25.652 148.79 24.788C148.07 23.924 147.086 23.492 145.838 23.492C144.59 23.492 143.594 23.924 142.85 24.788C142.13 25.652 141.77 27.008 141.77 28.856C141.77 30.704 142.13 32.072 142.85 32.96C143.594 33.848 144.59 34.292 145.838 34.292Z" fill="#131318"/>
<path d="M175.313 38V17.192H167.249V12.62H188.993V17.192H180.929V38H175.313ZM188.806 38V24.572C188.806 23.78 188.782 22.976 188.734 22.16C188.71 21.344 188.65 20.54 188.554 19.748H193.774L194.386 25.076H193.558C193.798 23.78 194.182 22.712 194.71 21.872C195.262 21.032 195.934 20.408 196.726 20C197.542 19.592 198.466 19.388 199.498 19.388C199.954 19.388 200.314 19.412 200.578 19.46C200.842 19.484 201.106 19.544 201.37 19.64L201.334 24.428C200.83 24.212 200.398 24.08 200.038 24.032C199.702 23.96 199.27 23.924 198.742 23.924C197.734 23.924 196.894 24.116 196.222 24.5C195.574 24.884 195.082 25.448 194.746 26.192C194.434 26.936 194.278 27.836 194.278 28.892V38H188.806ZM210.559 38.396C208.975 38.396 207.583 38.012 206.383 37.244C205.183 36.476 204.247 35.384 203.575 33.968C202.903 32.552 202.567 30.848 202.567 28.856C202.567 26.888 202.903 25.196 203.575 23.78C204.247 22.364 205.183 21.284 206.383 20.54C207.583 19.772 208.975 19.388 210.559 19.388C212.023 19.388 213.331 19.748 214.483 20.468C215.659 21.164 216.427 22.112 216.787 23.312H216.391L216.823 19.748H222.043C221.971 20.54 221.899 21.344 221.827 22.16C221.779 22.952 221.755 23.732 221.755 24.5V38H216.355L216.319 34.58H216.751C216.367 35.732 215.599 36.656 214.447 37.352C213.295 38.048 211.999 38.396 210.559 38.396ZM212.215 34.292C213.463 34.292 214.471 33.848 215.239 32.96C216.007 32.072 216.391 30.704 216.391 28.856C216.391 27.008 216.007 25.652 215.239 24.788C214.471 23.924 213.463 23.492 212.215 23.492C210.967 23.492 209.959 23.924 209.191 24.788C208.423 25.652 208.039 27.008 208.039 28.856C208.039 30.704 208.411 32.072 209.155 32.96C209.923 33.848 210.943 34.292 212.215 34.292ZM231.33 38L223.446 19.748H229.17L234.39 32.996H233.202L238.602 19.748H243.966L236.01 38H231.33ZM254.624 38.396C251.456 38.396 248.984 37.544 247.208 35.84C245.432 34.136 244.544 31.82 244.544 28.892C244.544 26.996 244.916 25.34 245.66 23.924C246.428 22.508 247.484 21.404 248.828 20.612C250.196 19.796 251.792 19.388 253.616 19.388C255.416 19.388 256.916 19.772 258.116 20.54C259.34 21.308 260.252 22.388 260.852 23.78C261.476 25.148 261.788 26.744 261.788 28.568V29.828H249.008V27.128H257.828L257.216 27.632C257.216 26.12 256.904 24.98 256.28 24.212C255.68 23.42 254.804 23.024 253.652 23.024C252.38 23.024 251.396 23.492 250.7 24.428C250.028 25.364 249.692 26.708 249.692 28.46V29.036C249.692 30.812 250.124 32.132 250.988 32.996C251.876 33.86 253.148 34.292 254.804 34.292C255.788 34.292 256.712 34.172 257.576 33.932C258.464 33.668 259.304 33.26 260.096 32.708L261.608 36.308C260.696 36.98 259.64 37.496 258.44 37.856C257.264 38.216 255.992 38.396 254.624 38.396ZM265.237 38V11.504H270.673V38H265.237Z" fill="#FF5400"/>
<g clip-path="url(#clip0_14_889)">
<path d="M46.8128 19.0651L43.7449 19.0651C42.8405 16.5183 41.2468 14.2726 39.1415 12.5781C37.0361 10.8837 34.5016 9.80691 31.8204 9.4678C29.1392 9.12871 26.4165 9.54058 23.9555 10.6575C21.4946 11.7745 19.392 13.5527 17.882 15.7941C17.6071 16.212 17.4508 16.6967 17.4298 17.1965C17.4087 17.6962 17.5238 18.1923 17.7626 18.6319C18.0013 19.0714 18.355 19.4378 18.7857 19.6922C19.2164 19.9465 19.7081 20.0791 20.2083 20.0759L23.9162 20.0759L23.9162 27.9244L20.2701 27.9244C19.7671 27.9222 19.273 28.0571 18.8409 28.3146C18.4088 28.5721 18.0551 28.9424 17.8177 29.3859C17.5803 29.8293 17.4683 30.3291 17.4936 30.8315C17.5189 31.3338 17.6807 31.8198 17.9614 32.2371C19.4816 34.4465 21.5811 36.1943 24.0295 37.2886C26.478 38.3829 29.1806 38.7813 31.8407 38.4402C34.5007 38.099 37.0153 37.0314 39.1083 35.3546C41.2014 33.6779 42.7919 31.4568 43.7052 28.9353L46.7951 28.9353C45.7207 32.5573 43.5046 35.7351 40.477 37.9951C37.4495 40.255 33.7726 41.476 29.9946 41.4761C20.4511 41.4761 7.89702 32.4004 1.60675 27.3108C1.10745 26.9039 0.705006 26.391 0.428616 25.8092C0.152226 25.2274 0.00881978 24.5913 0.00881979 23.9472C0.0088198 23.3031 0.152226 22.667 0.428616 22.0852C0.705006 21.5034 1.10745 20.9905 1.60675 20.5836C7.85288 15.494 20.3186 6.43598 30.0079 6.43598C33.7981 6.43999 37.4848 7.67306 40.5149 9.95014C43.5449 12.2272 45.7547 15.4255 46.8128 19.0651Z" fill="#FF5400"/>
<path d="M4.43189 22.1417C4.03744 22.2672 3.69312 22.5149 3.44872 22.8489C3.20432 23.183 3.07249 23.5861 3.07231 24.0001C3.07249 24.414 3.20432 24.8171 3.44872 25.1512C3.69312 25.4853 4.03744 25.733 4.43189 25.8585L7.21726 27.9243L47.4485 27.9243C48.7019 27.9245 49.951 27.7763 51.1697 27.4829C52.3665 27.1861 53.5216 26.7412 54.6083 26.1586C55.025 25.9699 55.3785 25.6651 55.6264 25.2807C55.8743 24.8963 56.0061 24.4486 56.0061 23.9912C56.0061 23.5338 55.8743 23.0861 55.6264 22.7017C55.3785 22.3173 55.025 22.0125 54.6083 21.8239C53.5216 21.2413 52.3665 20.7964 51.1697 20.4996C49.951 20.2062 48.7019 20.058 47.4485 20.0582L7.21726 20.0582L4.43189 22.1417Z" fill="#FF5400"/>
<path d="M41.7276 21.1619L26.5294 1.2449C26.2324 0.857424 25.8502 0.543569 25.4123 0.327692C24.9744 0.111814 24.4927 -0.000286308 24.0045 8.75267e-05L22.4816 8.75085e-05L28.9043 21.1619L41.7276 21.1619Z" fill="#FF5400"/>
<path d="M41.7276 26.8385L26.5294 46.7554C26.2324 47.1429 25.8502 47.4568 25.4123 47.6726C24.9744 47.8885 24.4927 48.0006 24.0045 48.0002L22.4816 48.0002L28.9043 26.8385L41.7276 26.8385Z" fill="#FF5400"/>
<path d="M25.1169 44.4202C25.1157 44.0662 25.254 43.7259 25.5019 43.4731C25.7497 43.2203 26.0872 43.0753 26.4412 43.0695L28.9043 43.0695C29.2626 43.0695 29.6061 43.2118 29.8594 43.4651C30.1128 43.7184 30.2551 44.062 30.2551 44.4202C30.2551 44.7785 30.1128 45.122 29.8594 45.3754C29.6061 45.6287 29.2626 45.771 28.9043 45.771L26.4412 45.771C26.0872 45.7652 25.7497 45.6202 25.5019 45.3674C25.254 45.1146 25.1157 44.7743 25.1169 44.4202Z" fill="#FF5400"/>
<path d="M25.1169 3.57991C25.1157 3.22587 25.254 2.8856 25.5019 2.63278C25.7497 2.37997 26.0872 2.23496 26.4412 2.22916L28.9043 2.22916C29.2626 2.22916 29.6061 2.37148 29.8594 2.6248C30.1128 2.87811 30.2551 3.22167 30.2551 3.57991C30.2551 3.93815 30.1128 4.28173 29.8594 4.53504C29.6061 4.78836 29.2626 4.93066 28.9043 4.93066L26.4412 4.93066C26.0872 4.92486 25.7497 4.77986 25.5019 4.52704C25.254 4.27423 25.1157 3.93396 25.1169 3.57991Z" fill="#FF5400"/>
<path d="M33.782 32.8771C33.7791 32.6979 33.8119 32.5199 33.8785 32.3534C33.945 32.187 34.044 32.0355 34.1698 31.9077C34.2955 31.7799 34.4454 31.6785 34.6107 31.6092C34.7761 31.5399 34.9535 31.5043 35.1328 31.5043L37.5915 31.5043C37.9497 31.5043 38.2933 31.6466 38.5466 31.8999C38.7999 32.1532 38.9423 32.4968 38.9423 32.8551C38.9423 33.2133 38.7999 33.5569 38.5466 33.8102C38.2933 34.0635 37.9497 34.2058 37.5915 34.2058L35.1328 34.2058C34.7783 34.2059 34.4381 34.0666 34.1854 33.818C33.9327 33.5695 33.7878 33.2315 33.782 32.8771Z" fill="#FF5400"/>
<path d="M33.782 15.1231C33.782 14.7649 33.9243 14.4213 34.1777 14.168C34.431 13.9147 34.7745 13.7724 35.1328 13.7724L37.5915 13.7724C37.9497 13.7724 38.2933 13.9147 38.5466 14.168C38.7999 14.4213 38.9423 14.7649 38.9423 15.1231C38.9423 15.4814 38.7999 15.8249 38.5466 16.0782C38.2933 16.3316 37.9497 16.4739 37.5915 16.4739L35.1328 16.4739C34.7745 16.4739 34.431 16.3316 34.1777 16.0782C33.9243 15.8249 33.782 15.4814 33.782 15.1231Z" fill="#FF5400"/>
</g>
<defs>
<clipPath id="clip0_14_889">
<rect width="48.0002" height="56.0076" fill="white" transform="matrix(1.19249e-08 -1 -1 -1.19249e-08 56.0076 48.0002)"/>
</clipPath>
</defs>
</svg>
